<?xml version="1.0" encoding="UTF-8"?>
<svg xmlns="http://www.w3.org/2000/svg" width="548" height="320" viewBox="0 0 548 320" fill="none">
  <rect x="0.5" y="0.5" width="547" height="319" stroke="#E1E6ED"></rect>
  <path d="M231.513 161.452L232.366 156.886C232.366 156.886 225.797 154.88 220.45 158.6V176.867H226.128V162.026C228.39 160.312 231.513 161.452 231.513 161.452Z" fill="#03435F"></path>
  <mask id="mask0" maskUnits="userSpaceOnUse" x="220" y="156" width="13" height="21">
    <path fill-rule="evenodd" clip-rule="evenodd" d="M220.45 158.6C223.023 156.81 225.878 156.346 228.149 156.346C230.598 156.346 232.366 156.886 232.366 156.886L231.513 161.452C231.513 161.452 228.39 160.312 226.128 162.026V176.867H220.45V158.6Z" fill="white"></path>
  </mask>
  <g mask="url(#mask0)">
    <path d="M-125.167 233.484L674.392 233.484L674.392 -831.483H-125.167L-125.167 233.484Z" fill="#03435F"></path>
  </g>
  <mask id="mask1" maskUnits="userSpaceOnUse" x="220" y="156" width="13" height="21">
    <path fill-rule="evenodd" clip-rule="evenodd" d="M220.45 158.6C223.023 156.81 225.878 156.346 228.149 156.346C230.598 156.346 232.366 156.886 232.366 156.886L231.513 161.452C231.513 161.452 228.39 160.312 226.128 162.026V176.867H220.45V158.6Z" fill="white"></path>
  </mask>
  <g mask="url(#mask1)">
    <path d="M210.932 185.816H241.885V147.396H210.932V185.816Z" fill="#03435F"></path>
  </g>
  <path d="M182.564 151.676L188.239 150.671V156.612H193.855V161.363H188.239V168.449C188.239 169.656 188.447 170.614 188.872 171.322C189.291 172.042 190.133 172.398 191.397 172.398C192.015 172.398 192.635 172.343 193.29 172.224C193.926 172.104 194.519 171.95 195.053 171.748L195.856 176.198C195.169 176.475 194.41 176.716 193.573 176.919C192.733 177.121 191.702 177.227 190.484 177.227C188.935 177.227 187.656 177.014 186.638 176.593C185.625 176.172 184.811 175.581 184.205 174.827C183.598 174.08 183.171 173.163 182.931 172.089C182.688 171.017 182.564 169.834 182.564 168.528V151.676Z" fill="#03435F"></path>
  <mask id="mask2" maskUnits="userSpaceOnUse" x="182" y="150" width="14" height="28">
    <path fill-rule="evenodd" clip-rule="evenodd" d="M182.565 151.676L188.24 150.671V156.612H193.856V161.363H188.24V168.449C188.24 169.656 188.448 170.614 188.872 171.322C189.292 172.042 190.133 172.398 191.397 172.398C192.015 172.398 192.635 172.343 193.29 172.224C193.927 172.104 194.52 171.95 195.054 171.748L195.857 176.198C195.17 176.475 194.41 176.716 193.573 176.92C192.734 177.122 191.703 177.227 190.484 177.227C188.936 177.227 187.656 177.014 186.639 176.593C185.626 176.172 184.812 175.581 184.205 174.828C183.598 174.08 183.172 173.163 182.932 172.089C182.688 171.017 182.565 169.834 182.565 168.528V151.676Z" fill="white"></path>
  </mask>
  <g mask="url(#mask2)">
    <path d="M-125.167 233.48L674.392 233.48L674.392 -831.487H-125.167L-125.167 233.48Z" fill="#03435F"></path>
  </g>
  <mask id="mask3" maskUnits="userSpaceOnUse" x="182" y="150" width="14" height="28">
    <path fill-rule="evenodd" clip-rule="evenodd" d="M182.565 151.676L188.24 150.671V156.612H193.856V161.363H188.24V168.449C188.24 169.656 188.448 170.614 188.872 171.322C189.292 172.042 190.133 172.398 191.397 172.398C192.015 172.398 192.635 172.343 193.29 172.224C193.927 172.104 194.52 171.95 195.054 171.748L195.857 176.198C195.17 176.475 194.41 176.716 193.573 176.92C192.734 177.122 191.703 177.227 190.484 177.227C188.936 177.227 187.656 177.014 186.639 176.593C185.626 176.172 184.812 175.581 184.205 174.828C183.598 174.08 183.172 173.163 182.932 172.089C182.688 171.017 182.565 169.834 182.565 168.528V151.676Z" fill="white"></path>
  </mask>
  <g mask="url(#mask3)">
    <path d="M173.046 186.176H205.374V141.721H173.046V186.176Z" fill="#03435F"></path>
  </g>
  <path d="M240.772 172.776C241.81 172.776 242.544 172.668 242.98 172.466C243.413 172.262 243.623 171.863 243.623 171.279C243.623 170.817 243.349 170.415 242.788 170.074C242.227 169.726 241.383 169.339 240.238 168.899C239.351 168.566 238.543 168.223 237.816 167.868C237.097 167.507 236.481 167.086 235.973 166.586C235.466 166.088 235.074 165.49 234.791 164.795C234.508 164.111 234.374 163.285 234.374 162.309C234.374 160.421 235.074 158.924 236.468 157.827C237.863 156.734 239.775 156.175 242.216 156.175C243.436 156.175 244.604 156.285 245.722 156.506C246.837 156.721 247.729 156.966 248.383 157.212L247.396 161.658C246.734 161.429 246.016 161.227 245.243 161.051C244.469 160.871 243.598 160.776 242.635 160.776C240.858 160.776 239.969 161.278 239.969 162.273C239.969 162.502 240.008 162.707 240.085 162.885C240.163 163.065 240.313 163.237 240.537 163.402C240.772 163.566 241.078 163.75 241.474 163.94C241.869 164.139 242.371 164.345 242.98 164.58C244.218 165.043 245.247 165.494 246.059 165.95C246.873 166.405 247.512 166.884 247.984 167.417C248.454 167.937 248.787 168.513 248.974 169.152C249.162 169.79 249.259 170.527 249.259 171.367C249.259 173.358 248.516 174.863 247.035 175.881C245.548 176.895 243.445 177.406 240.728 177.406C238.954 177.406 237.476 177.258 236.296 176.947C235.113 176.644 234.296 176.382 233.84 176.18L234.791 171.545C235.751 171.927 236.75 172.224 237.759 172.447C238.781 172.666 239.775 172.776 240.772 172.776Z" fill="#03435F"></path>
  <mask id="mask4" maskUnits="userSpaceOnUse" x="233" y="156" width="17" height="22">
    <path fill-rule="evenodd" clip-rule="evenodd" d="M236.468 157.827C237.864 156.734 239.775 156.175 242.216 156.175C243.436 156.175 244.604 156.285 245.722 156.506C246.837 156.721 247.729 156.965 248.384 157.212L247.396 161.658C246.734 161.429 246.016 161.227 245.243 161.051C244.47 160.87 243.598 160.776 242.636 160.776C240.858 160.776 239.969 161.278 239.969 162.273C239.969 162.502 240.008 162.707 240.085 162.885C240.163 163.065 240.314 163.237 240.537 163.402C240.772 163.566 241.078 163.75 241.475 163.94C241.869 164.139 242.371 164.346 242.98 164.58C244.219 165.043 245.247 165.494 246.059 165.95C246.874 166.405 247.513 166.884 247.985 167.417C248.455 167.937 248.787 168.512 248.975 169.152C249.162 169.79 249.259 170.527 249.259 171.367C249.259 173.358 248.516 174.864 247.036 175.881C245.548 176.895 243.445 177.406 240.729 177.406C238.954 177.406 237.476 177.258 236.297 176.947C235.113 176.644 234.296 176.382 233.84 176.18L234.791 171.545C235.752 171.928 236.75 172.224 237.759 172.447C238.781 172.666 239.775 172.776 240.772 172.776C241.81 172.776 242.544 172.668 242.98 172.466C243.413 172.262 243.623 171.863 243.623 171.279C243.623 170.817 243.35 170.415 242.788 170.074C242.227 169.726 241.383 169.339 240.238 168.899C239.351 168.566 238.544 168.223 237.816 167.868C237.097 167.507 236.481 167.086 235.973 166.586C235.466 166.087 235.074 165.49 234.791 164.795C234.508 164.111 234.374 163.285 234.374 162.309C234.374 160.422 235.074 158.925 236.468 157.827Z" fill="white"></path>
  </mask>
  <g mask="url(#mask4)">
    <path d="M-125.167 233.484L674.392 233.484L674.392 -831.483H-125.167L-125.167 233.484Z" fill="#03435F"></path>
  </g>
  <mask id="mask5" maskUnits="userSpaceOnUse" x="233" y="156" width="17" height="22">
    <path fill-rule="evenodd" clip-rule="evenodd" d="M236.468 157.827C237.864 156.734 239.775 156.175 242.216 156.175C243.436 156.175 244.604 156.285 245.722 156.506C246.837 156.721 247.729 156.965 248.384 157.212L247.396 161.658C246.734 161.429 246.016 161.227 245.243 161.051C244.47 160.87 243.598 160.776 242.636 160.776C240.858 160.776 239.969 161.278 239.969 162.273C239.969 162.502 240.008 162.707 240.085 162.885C240.163 163.065 240.314 163.237 240.537 163.402C240.772 163.566 241.078 163.75 241.475 163.94C241.869 164.139 242.371 164.346 242.98 164.58C244.219 165.043 245.247 165.494 246.059 165.95C246.874 166.405 247.513 166.884 247.985 167.417C248.455 167.937 248.787 168.512 248.975 169.152C249.162 169.79 249.259 170.527 249.259 171.367C249.259 173.358 248.516 174.864 247.036 175.881C245.548 176.895 243.445 177.406 240.729 177.406C238.954 177.406 237.476 177.258 236.297 176.947C235.113 176.644 234.296 176.382 233.84 176.18L234.791 171.545C235.752 171.928 236.75 172.224 237.759 172.447C238.781 172.666 239.775 172.776 240.772 172.776C241.81 172.776 242.544 172.668 242.98 172.466C243.413 172.262 243.623 171.863 243.623 171.279C243.623 170.817 243.35 170.415 242.788 170.074C242.227 169.726 241.383 169.339 240.238 168.899C239.351 168.566 238.544 168.223 237.816 167.868C237.097 167.507 236.481 167.086 235.973 166.586C235.466 166.087 235.074 165.49 234.791 164.795C234.508 164.111 234.374 163.285 234.374 162.309C234.374 160.422 235.074 158.925 236.468 157.827Z" fill="white"></path>
  </mask>
  <g mask="url(#mask5)">
    <path d="M224.321 186.355H258.778V147.225H224.321V186.355Z" fill="#03435F"></path>
  </g>
  <path d="M266.75 165.296C266.242 167.238 265.706 169.171 265.133 171.083C264.563 173.001 263.956 174.93 263.329 176.871H258.911C258.452 175.797 257.953 174.521 257.419 173.042C256.88 171.555 256.331 169.942 255.754 168.188C255.183 166.439 254.6 164.588 254.002 162.629C253.402 160.679 252.82 158.707 252.264 156.711H258.245C258.443 157.629 258.669 158.636 258.913 159.721C259.155 160.807 259.41 161.926 259.677 163.078C259.944 164.225 260.229 165.378 260.521 166.542C260.815 167.706 261.117 168.821 261.422 169.893C261.753 168.77 262.077 167.623 262.394 166.448C262.706 165.271 263.014 164.115 263.308 162.979C263.598 161.845 263.883 160.743 264.143 159.682C264.408 158.623 264.643 157.629 264.85 156.711H268.958C269.168 157.629 269.389 158.623 269.647 159.682C269.898 160.743 270.165 161.845 270.448 162.979C270.722 164.115 271.02 165.271 271.319 166.448C271.627 167.623 271.942 168.77 272.268 169.893C272.576 168.821 272.882 167.706 273.19 166.542C273.498 165.378 273.787 164.225 274.052 163.078C274.317 161.926 274.572 160.807 274.819 159.721C275.062 158.636 275.284 157.629 275.487 156.711H281.39C280.829 158.707 280.252 160.679 279.652 162.629C279.047 164.588 278.47 166.439 277.893 168.188C277.325 169.942 276.764 171.555 276.219 173.042C275.669 174.521 275.163 175.797 274.711 176.871H270.293C269.654 174.93 269.034 173.001 268.422 171.083C267.813 169.171 267.261 167.238 266.75 165.296Z" fill="#03435F"></path>
  <mask id="mask6" maskUnits="userSpaceOnUse" x="252" y="156" width="30" height="21">
    <path fill-rule="evenodd" clip-rule="evenodd" d="M275.487 156.715H281.39C280.829 158.711 280.252 160.683 279.652 162.632C279.047 164.592 278.47 166.443 277.893 168.191C277.325 169.946 276.764 171.559 276.218 173.045C275.669 174.525 275.163 175.801 274.711 176.875H270.293C269.654 174.934 269.034 173.004 268.422 171.086C267.813 169.175 267.261 167.242 266.75 165.3C266.241 167.242 265.705 169.175 265.133 171.086C264.563 173.004 263.956 174.934 263.329 176.875H258.91C258.452 175.801 257.952 174.525 257.419 173.045C256.88 171.559 256.331 169.946 255.754 168.191C255.183 166.443 254.599 164.592 254.002 162.632C253.402 160.683 252.82 158.711 252.264 156.715H258.244C258.443 157.632 258.669 158.64 258.913 159.724C259.155 160.811 259.41 161.93 259.677 163.081C259.944 164.228 260.229 165.382 260.521 166.546C260.815 167.71 261.117 168.825 261.422 169.897C261.752 168.774 262.076 167.626 262.393 166.451C262.706 165.275 263.014 164.119 263.308 162.983C263.598 161.848 263.883 160.747 264.143 159.686C264.408 158.627 264.643 157.632 264.85 156.715H268.958C269.168 157.632 269.389 158.627 269.647 159.686C269.898 160.747 270.165 161.848 270.448 162.983C270.722 164.119 271.02 165.275 271.319 166.451C271.627 167.626 271.942 168.774 272.268 169.897C272.576 168.825 272.881 167.71 273.19 166.546C273.498 165.382 273.787 164.228 274.052 163.081C274.317 161.93 274.572 160.811 274.818 159.724C275.062 158.64 275.284 157.632 275.487 156.715Z" fill="white"></path>
  </mask>
  <g mask="url(#mask6)">
    <path d="M-125.168 233.484L674.391 233.484L674.391 -831.483H-125.168L-125.168 233.484Z" fill="#03435F"></path>
  </g>
  <mask id="mask7" maskUnits="userSpaceOnUse" x="252" y="156" width="30" height="21">
    <path fill-rule="evenodd" clip-rule="evenodd" d="M275.487 156.715H281.39C280.829 158.711 280.252 160.683 279.652 162.632C279.047 164.592 278.47 166.443 277.893 168.191C277.325 169.946 276.764 171.559 276.218 173.045C275.669 174.525 275.163 175.801 274.711 176.875H270.293C269.654 174.934 269.034 173.004 268.422 171.086C267.813 169.175 267.261 167.242 266.75 165.3C266.241 167.242 265.705 169.175 265.133 171.086C264.563 173.004 263.956 174.934 263.329 176.875H258.91C258.452 175.801 257.952 174.525 257.419 173.045C256.88 171.559 256.331 169.946 255.754 168.191C255.183 166.443 254.599 164.592 254.002 162.632C253.402 160.683 252.82 158.711 252.264 156.715H258.244C258.443 157.632 258.669 158.64 258.913 159.724C259.155 160.811 259.41 161.93 259.677 163.081C259.944 164.228 260.229 165.382 260.521 166.546C260.815 167.71 261.117 168.825 261.422 169.897C261.752 168.774 262.076 167.626 262.393 166.451C262.706 165.275 263.014 164.119 263.308 162.983C263.598 161.848 263.883 160.747 264.143 159.686C264.408 158.627 264.643 157.632 264.85 156.715H268.958C269.168 157.632 269.389 158.627 269.647 159.686C269.898 160.747 270.165 161.848 270.448 162.983C270.722 164.119 271.02 165.275 271.319 166.451C271.627 167.626 271.942 168.774 272.268 169.897C272.576 168.825 272.881 167.71 273.19 166.546C273.498 165.382 273.787 164.228 274.052 163.081C274.317 161.93 274.572 160.811 274.818 159.724C275.062 158.64 275.284 157.632 275.487 156.715Z" fill="white"></path>
  </mask>
  <g mask="url(#mask7)">
    <path d="M242.745 185.824H290.909V147.766H242.745V185.824Z" fill="#03435F"></path>
  </g>
  <path d="M285.402 176.863H291.069V156.708H285.402V176.863Z" fill="#03435F"></path>
  <mask id="mask8" maskUnits="userSpaceOnUse" x="285" y="156" width="7" height="21">
    <path fill-rule="evenodd" clip-rule="evenodd" d="M285.402 176.867V156.712H291.069V176.867H285.402Z" fill="white"></path>
  </mask>
  <g mask="url(#mask8)">
    <path d="M-125.167 233.484L674.392 233.484L674.392 -831.483H-125.167L-125.167 233.484Z" fill="#03435F"></path>
  </g>
  <mask id="mask9" maskUnits="userSpaceOnUse" x="285" y="156" width="7" height="21">
    <path fill-rule="evenodd" clip-rule="evenodd" d="M285.402 176.867V156.712H291.069V176.867H285.402Z" fill="white"></path>
  </mask>
  <g mask="url(#mask9)">
    <path d="M275.884 185.816H300.587V147.762H275.884V185.816Z" fill="#03435F"></path>
  </g>
  <path d="M295.575 151.683L301.246 150.671V156.719H306.857V161.462H301.246V168.554C301.246 169.754 301.456 170.721 301.873 171.428C302.29 172.143 303.136 172.502 304.403 172.502C305.016 172.502 305.646 172.45 306.289 172.332C306.939 172.216 307.528 172.051 308.064 171.851L308.86 176.297C308.173 176.58 307.409 176.821 306.577 177.027C305.735 177.229 304.715 177.332 303.492 177.332C301.942 177.332 300.662 177.122 299.647 176.696C298.63 176.282 297.817 175.696 297.211 174.935C296.604 174.188 296.18 173.266 295.936 172.199C295.689 171.123 295.575 169.933 295.575 168.633V151.683Z" fill="#03435F"></path>
  <mask id="mask10" maskUnits="userSpaceOnUse" x="295" y="150" width="14" height="28">
    <path fill-rule="evenodd" clip-rule="evenodd" d="M295.575 151.683L301.245 150.671V156.719H306.857V161.462H301.245V168.554C301.245 169.754 301.456 170.721 301.873 171.428C302.29 172.143 303.137 172.501 304.403 172.501C305.016 172.501 305.646 172.45 306.289 172.332C306.939 172.216 307.528 172.051 308.063 171.851L308.86 176.297C308.173 176.58 307.409 176.821 306.577 177.027C305.735 177.229 304.715 177.332 303.492 177.332C301.942 177.332 300.662 177.122 299.647 176.696C298.629 176.281 297.817 175.696 297.211 174.935C296.604 174.188 296.18 173.267 295.936 172.199C295.689 171.123 295.575 169.933 295.575 168.634V151.683Z" fill="white"></path>
  </mask>
  <g mask="url(#mask10)">
    <path d="M-125.167 233.484L674.392 233.484L674.392 -831.483H-125.167L-125.167 233.484Z" fill="#03435F"></path>
  </g>
  <mask id="mask11" maskUnits="userSpaceOnUse" x="295" y="150" width="14" height="28">
    <path fill-rule="evenodd" clip-rule="evenodd" d="M295.575 151.683L301.245 150.671V156.719H306.857V161.462H301.245V168.554C301.245 169.754 301.456 170.721 301.873 171.428C302.29 172.143 303.137 172.501 304.403 172.501C305.016 172.501 305.646 172.45 306.289 172.332C306.939 172.216 307.528 172.051 308.063 171.851L308.86 176.297C308.173 176.58 307.409 176.821 306.577 177.027C305.735 177.229 304.715 177.332 303.492 177.332C301.942 177.332 300.662 177.122 299.647 176.696C298.629 176.281 297.817 175.696 297.211 174.935C296.604 174.188 296.18 173.267 295.936 172.199C295.689 171.123 295.575 169.933 295.575 168.634V151.683Z" fill="white"></path>
  </mask>
  <g mask="url(#mask11)">
    <path d="M286.057 186.281H318.379V141.721H286.057V186.281Z" fill="#03435F"></path>
  </g>
  <path d="M310.864 166.798C310.864 165.339 311.1 163.965 311.569 162.676C312.039 161.383 312.717 160.262 313.604 159.302C314.494 158.342 315.57 157.585 316.843 157.021C318.109 156.465 319.555 156.177 321.179 156.177C322.244 156.177 323.223 156.278 324.112 156.467C325.003 156.662 325.869 156.935 326.702 157.289L325.525 161.849C324.989 161.647 324.407 161.471 323.768 161.312C323.134 161.162 322.42 161.083 321.636 161.083C319.961 161.083 318.709 161.609 317.89 162.657C317.057 163.707 316.651 165.084 316.651 166.798C316.651 168.608 317.037 170.015 317.817 171.012C318.583 172.006 319.938 172.507 321.866 172.507C322.552 172.507 323.285 172.44 324.076 172.313C324.861 172.184 325.584 171.983 326.25 171.699L327.044 176.377C326.382 176.658 325.561 176.895 324.571 177.103C323.577 177.305 322.488 177.41 321.298 177.41C319.471 177.41 317.892 177.131 316.576 176.583C315.258 176.035 314.17 175.288 313.321 174.343C312.466 173.396 311.85 172.279 311.456 170.99C311.061 169.699 310.864 168.299 310.864 166.798Z" fill="#03435F"></path>
  <mask id="mask12" maskUnits="userSpaceOnUse" x="310" y="156" width="18" height="22">
    <path fill-rule="evenodd" clip-rule="evenodd" d="M316.843 157.021C318.109 156.465 319.555 156.177 321.179 156.177C322.244 156.177 323.223 156.277 324.112 156.466C325.002 156.662 325.869 156.935 326.702 157.289L325.525 161.849C324.988 161.647 324.407 161.471 323.768 161.312C323.134 161.161 322.42 161.082 321.635 161.082C319.961 161.082 318.709 161.609 317.89 162.657C317.057 163.707 316.651 165.084 316.651 166.798C316.651 168.608 317.037 170.015 317.817 171.012C318.583 172.006 319.938 172.507 321.865 172.507C322.552 172.507 323.285 172.44 324.076 172.313C324.861 172.184 325.584 171.983 326.25 171.699L327.044 176.377C326.382 176.658 325.561 176.894 324.571 177.103C323.577 177.305 322.489 177.41 321.298 177.41C319.47 177.41 317.892 177.131 316.576 176.583C315.258 176.035 314.17 175.288 313.321 174.343C312.466 173.396 311.85 172.279 311.456 170.99C311.061 169.699 310.864 168.299 310.864 166.798C310.864 165.339 311.1 163.965 311.569 162.676C312.039 161.383 312.717 160.262 313.604 159.301C314.494 158.342 315.57 157.585 316.843 157.021Z" fill="white"></path>
  </mask>
  <g mask="url(#mask12)">
    <path d="M-125.167 233.484L674.392 233.484L674.392 -831.483H-125.167L-125.167 233.484Z" fill="#03435F"></path>
  </g>
  <mask id="mask13" maskUnits="userSpaceOnUse" x="310" y="156" width="18" height="22">
    <path fill-rule="evenodd" clip-rule="evenodd" d="M316.843 157.021C318.109 156.465 319.555 156.177 321.179 156.177C322.244 156.177 323.223 156.277 324.112 156.466C325.002 156.662 325.869 156.935 326.702 157.289L325.525 161.849C324.988 161.647 324.407 161.471 323.768 161.312C323.134 161.161 322.42 161.082 321.635 161.082C319.961 161.082 318.709 161.609 317.89 162.657C317.057 163.707 316.651 165.084 316.651 166.798C316.651 168.608 317.037 170.015 317.817 171.012C318.583 172.006 319.938 172.507 321.865 172.507C322.552 172.507 323.285 172.44 324.076 172.313C324.861 172.184 325.584 171.983 326.25 171.699L327.044 176.377C326.382 176.658 325.561 176.894 324.571 177.103C323.577 177.305 322.489 177.41 321.298 177.41C319.47 177.41 317.892 177.131 316.576 176.583C315.258 176.035 314.17 175.288 313.321 174.343C312.466 173.396 311.85 172.279 311.456 170.99C311.061 169.699 310.864 168.299 310.864 166.798C310.864 165.339 311.1 163.965 311.569 162.676C312.039 161.383 312.717 160.262 313.604 159.301C314.494 158.342 315.57 157.585 316.843 157.021Z" fill="white"></path>
  </mask>
  <g mask="url(#mask13)">
    <path d="M301.346 186.359H336.562V147.227H301.346V186.359Z" fill="#03435F"></path>
  </g>
  <path d="M330.71 176.867V151.677L336.383 150.674V156.796C336.761 156.669 337.247 156.547 337.85 156.431C338.443 156.317 339.024 156.257 339.581 156.257C341.203 156.257 342.551 156.482 343.632 156.927C344.709 157.374 345.578 158.007 346.221 158.825C346.873 159.64 347.325 160.614 347.596 161.734C347.859 162.861 347.991 164.116 347.991 165.495V176.867H342.32V166.179C342.32 164.341 342.085 163.039 341.618 162.268C341.148 161.51 340.276 161.126 339.01 161.126C338.495 161.126 338.025 161.171 337.578 161.257C337.135 161.347 336.736 161.446 336.383 161.547V176.867H330.71Z" fill="#03435F"></path>
  <mask id="mask14" maskUnits="userSpaceOnUse" x="330" y="150" width="18" height="27">
    <path fill-rule="evenodd" clip-rule="evenodd" d="M330.71 151.677L336.382 150.674V156.796C336.761 156.669 337.247 156.547 337.85 156.431C338.443 156.317 339.024 156.257 339.581 156.257C341.203 156.257 342.551 156.482 343.632 156.927C344.709 157.374 345.578 158.007 346.221 158.826C346.873 159.64 347.325 160.614 347.596 161.734C347.859 162.861 347.991 164.116 347.991 165.495V176.867H342.32V166.179C342.32 164.341 342.085 163.039 341.618 162.268C341.148 161.51 340.276 161.126 339.01 161.126C338.495 161.126 338.025 161.171 337.578 161.257C337.135 161.347 336.736 161.446 336.382 161.547V176.867H330.71V151.677Z" fill="white"></path>
  </mask>
  <g mask="url(#mask14)">
    <path d="M-125.167 233.484L674.392 233.484L674.392 -831.483H-125.167L-125.167 233.484Z" fill="#03435F"></path>
  </g>
  <mask id="mask15" maskUnits="userSpaceOnUse" x="330" y="150" width="18" height="27">
    <path fill-rule="evenodd" clip-rule="evenodd" d="M330.71 151.677L336.382 150.674V156.796C336.761 156.669 337.247 156.547 337.85 156.431C338.443 156.317 339.024 156.257 339.581 156.257C341.203 156.257 342.551 156.482 343.632 156.927C344.709 157.374 345.578 158.007 346.221 158.826C346.873 159.64 347.325 160.614 347.596 161.734C347.859 162.861 347.991 164.116 347.991 165.495V176.867H342.32V166.179C342.32 164.341 342.085 163.039 341.618 162.268C341.148 161.51 340.276 161.126 339.01 161.126C338.495 161.126 338.025 161.171 337.578 161.257C337.135 161.347 336.736 161.446 336.382 161.547V176.867H330.71V151.677Z" fill="white"></path>
  </mask>
  <g mask="url(#mask15)">
    <path d="M321.191 185.816H357.509V141.725H321.191V185.816Z" fill="#03435F"></path>
  </g>
  <path d="M159.68 176.871V158.606C159.68 158.606 162.531 156.314 168.767 156.314C174.442 156.314 177.559 159.169 177.559 165.451V176.871H171.89V165.451C171.89 161.45 169.901 161.173 168.202 161.173C166.502 161.173 165.364 162.023 165.364 162.023V176.871H159.68Z" fill="#03435F"></path>
  <mask id="mask16" maskUnits="userSpaceOnUse" x="159" y="156" width="19" height="21">
    <path fill-rule="evenodd" clip-rule="evenodd" d="M159.68 158.606C159.68 158.606 162.531 156.314 168.767 156.314C174.442 156.314 177.558 159.168 177.558 165.451V176.871H171.89V165.451C171.89 161.449 169.901 161.173 168.202 161.173C166.502 161.173 165.364 162.023 165.364 162.023V176.871H159.68V158.606Z" fill="white"></path>
  </mask>
  <g mask="url(#mask16)">
    <path d="M-125.167 233.48L674.392 233.48L674.392 -831.487H-125.167L-125.167 233.48Z" fill="#03435F"></path>
  </g>
  <mask id="mask17" maskUnits="userSpaceOnUse" x="159" y="156" width="19" height="21">
    <path fill-rule="evenodd" clip-rule="evenodd" d="M159.68 158.606C159.68 158.606 162.531 156.314 168.767 156.314C174.442 156.314 177.558 159.168 177.558 165.451V176.871H171.89V165.451C171.89 161.449 169.901 161.173 168.202 161.173C166.502 161.173 165.364 162.023 165.364 162.023V176.871H159.68V158.606Z" fill="white"></path>
  </mask>
  <g mask="url(#mask17)">
    <path d="M150.161 185.82H187.076V147.365H150.161V185.82Z" fill="#03435F"></path>
  </g>
  <path d="M149 176.871V151.677L154.675 150.671V176.871H149Z" fill="#03435F"></path>
  <mask id="mask18" maskUnits="userSpaceOnUse" x="149" y="150" width="6" height="27">
    <path fill-rule="evenodd" clip-rule="evenodd" d="M149 151.677L154.675 150.671V176.871H149V151.677Z" fill="white"></path>
  </mask>
  <g mask="url(#mask18)">
    <path d="M-125.167 233.48L674.392 233.48L674.392 -831.487H-125.167L-125.167 233.48Z" fill="#03435F"></path>
  </g>
  <mask id="mask19" maskUnits="userSpaceOnUse" x="149" y="150" width="6" height="27">
    <path fill-rule="evenodd" clip-rule="evenodd" d="M149 151.677L154.675 150.671V176.871H149V151.677Z" fill="white"></path>
  </mask>
  <g mask="url(#mask19)">
    <path d="M139.481 185.82H164.194V141.722H139.481V185.82Z" fill="#03435F"></path>
  </g>
  <path fill-rule="evenodd" clip-rule="evenodd" d="M203.247 168.243H216.012C216.582 164.81 216.012 156.258 207.5 156.258C201.826 156.258 197.857 160.248 197.857 166.533C197.857 174.525 202.962 177.375 208.64 177.375C212.609 177.375 215.444 176.243 215.444 176.243L214.876 171.67C214.876 171.67 212.039 172.523 209.201 172.523C203.532 172.523 203.247 168.243 203.247 168.243ZM203.247 164.243C203.247 164.243 203.532 160.248 207.221 160.248C210.907 160.248 211.185 164.243 211.185 164.243H203.247Z" fill="#03435F"></path>
  <mask id="mask20" maskUnits="userSpaceOnUse" x="197" y="156" width="20" height="22">
    <path fill-rule="evenodd" clip-rule="evenodd" d="M197.858 166.533C197.858 160.248 201.827 156.257 207.5 156.257C216.013 156.257 216.583 164.81 216.013 168.242H203.248C203.248 168.242 203.533 172.523 209.201 172.523C212.039 172.523 214.877 171.67 214.877 171.67L215.445 176.243C215.445 176.243 212.61 177.375 208.641 177.375C202.963 177.375 197.858 174.525 197.858 166.533ZM207.222 160.248C203.533 160.248 203.248 164.243 203.248 164.243H211.186C211.186 164.243 210.908 160.248 207.222 160.248Z" fill="white"></path>
  </mask>
  <g mask="url(#mask20)">
    <path d="M-125.167 233.484L674.392 233.484L674.392 -831.483H-125.167L-125.167 233.484Z" fill="#03435F"></path>
  </g>
  <mask id="mask21" maskUnits="userSpaceOnUse" x="197" y="156" width="20" height="22">
    <path fill-rule="evenodd" clip-rule="evenodd" d="M197.858 166.533C197.858 160.248 201.827 156.257 207.5 156.257C216.013 156.257 216.583 164.81 216.013 168.242H203.248C203.248 168.242 203.533 172.523 209.201 172.523C212.039 172.523 214.877 171.67 214.877 171.67L215.445 176.243C215.445 176.243 212.61 177.375 208.641 177.375C202.963 177.375 197.858 174.525 197.858 166.533ZM207.222 160.248C203.533 160.248 203.248 164.243 203.248 164.243H211.186C211.186 164.243 210.908 160.248 207.222 160.248Z" fill="white"></path>
  </mask>
  <g mask="url(#mask21)">
    <path d="M188.34 186.324H225.69V147.308H188.34V186.324Z" fill="#03435F"></path>
  </g>
  <mask id="mask22" maskUnits="userSpaceOnUse" x="355" y="146" width="38" height="47">
    <path fill-rule="evenodd" clip-rule="evenodd" d="M355.508 150.678C355.508 149.46 371.823 146.832 382.766 146.832C387.511 146.832 391.245 147.326 392.201 148.644C397.128 154.761 362.443 193.138 359.552 191.974C357.235 191.392 378.045 166.965 374.576 157.074C372.844 151.844 355.508 152.426 355.508 150.678Z" fill="white"></path>
  </mask>
  <g mask="url(#mask22)">
    <path d="M345.989 200.949H402.197V137.882H345.989V200.949Z" fill="#ED342B"></path>
  </g>
  <mask id="mask23" maskUnits="userSpaceOnUse" x="384" y="128" width="17" height="16">
    <path fill-rule="evenodd" clip-rule="evenodd" d="M384.978 135.557C384.978 131.38 388.342 127.999 392.489 127.999C396.64 127.999 400 131.38 400 135.557C400 139.737 396.64 143.117 392.489 143.117C388.342 143.117 384.978 139.737 384.978 135.557Z" fill="white"></path>
  </mask>
  <g mask="url(#mask23)">
    <path d="M375.459 152.066H409.519V119.049H375.459V152.066Z" fill="#ED342B"></path>
  </g>
</svg>
